<svg aria-hidden="true" style="position: absolute; width: 0; height: 0; overflow: hidden;" version="1.1" xmlns="http://www.w3.org/2000/svg" xmlns:xlink="http://www.w3.org/1999/xlink">
<defs>
<symbol id="icon-location-pin" viewBox="0 0 20 20">
<path d="M10 2.009c-2.762 0-5 2.229-5 4.99 0 4.774 5 11 5 11s5-6.227 5-11c0-2.76-2.238-4.99-5-4.99zM10 9.76c-1.492 0-2.7-1.209-2.7-2.7s1.208-2.7 2.7-2.7c1.49 0 2.699 1.209 2.699 2.7s-1.209 2.7-2.699 2.7z"></path>
</symbol>
<symbol id="icon-message" viewBox="0 0 20 20">
<path d="M18 6v7c0 1.1-0.9 2-2 2h-4v3l-4-3h-4c-1.101 0-2-0.9-2-2v-7c0-1.1 0.899-2 2-2h12c1.1 0 2 0.9 2 2z"></path>
</symbol>
<symbol id="icon-phone" viewBox="0 0 20 20">
<path d="M11.229 11.229c-1.583 1.582-3.417 3.096-4.142 2.371-1.037-1.037-1.677-1.941-3.965-0.102-2.287 1.838-0.53 3.064 0.475 4.068 1.16 1.16 5.484 0.062 9.758-4.211 4.273-4.274 5.368-8.598 4.207-9.758-1.005-1.006-2.225-2.762-4.063-0.475s-0.936 2.927 0.103 3.965c0.722 0.725-0.791 2.559-2.373 4.142z"></path>
</symbol>
<symbol id="icon-star-outlined" viewBox="0 0 20 20">
<path d="M18.8 8.022h-6.413l-2.387-6.722-2.389 6.722h-6.412l5.232 3.947-1.871 6.929 5.44-4.154 5.438 4.154-1.869-6.929 5.231-3.947zM10 12.783l-3.014 2.5 1.243-3.562-2.851-2.3 3.522 0.101 1.1-4.040 1.099 4.040 3.521-0.101-2.851 2.3 1.243 3.562-3.012-2.5z"></path>
</symbol>
<symbol id="icon-star" viewBox="0 0 20 20">
<path d="M10 1.3l2.388 6.722h6.412l-5.232 3.948 1.871 6.928-5.439-4.154-5.438 4.154 1.87-6.928-5.233-3.948h6.412l2.389-6.722z"></path>
</symbol>
<symbol id="icon-facebook" viewBox="0 0 20 20">
<path d="M17 1h-14c-1.1 0-2 0.9-2 2v14c0 1.101 0.9 2 2 2h7v-7h-2v-2.475h2v-2.050c0-2.164 1.212-3.684 3.766-3.684l1.803 0.002v2.605h-1.197c-0.994 0-1.372 0.746-1.372 1.438v1.69h2.568l-0.568 2.474h-2v7h4c1.1 0 2-0.899 2-2v-14c0-1.1-0.9-2-2-2z"></path>
</symbol>
<symbol id="icon-list" viewBox="0 0 32 32">
<path d="M8 8v4h16v-4h-16zM8 18h16v-4h-16v4zM8 24h16v-4h-16v4z"></path>
</symbol>
<symbol id="icon-scissors" viewBox="0 0 32 32">
<path d="M21.5 20.988c1.934 0 3.5 2.016 3.5 4.5 0 2.486-1.566 4.5-3.5 4.5s-3.5-2.014-3.5-4.5c0-1.498 0.576-2.816 1.452-3.635l-3.452-4.955-3.453 4.955c0.877 0.819 1.453 2.137 1.453 3.635 0 2.486-1.567 4.5-3.5 4.5s-3.5-2.014-3.5-4.5c0-2.484 1.567-4.5 3.5-4.5 0.199 0 0.392 0.035 0.582 0.076l3.475-6.238-3.631-5.212c-2.961-5.129-0.62-7.604-0.62-7.604l5.694 10.225 5.694-10.224c0 0 2.341 2.475-0.62 7.604l-3.631 5.212 3.475 6.238c0.189-0.042 0.383-0.077 0.582-0.077zM10.5 22.969c-1.104 0-2 1.119-2 2.5s0.896 2.5 2 2.5 2-1.119 2-2.5-0.896-2.5-2-2.5zM16 14.073c-0.552 0-1 0.447-1 1 0 0.552 0.448 1 1 1 0.553 0 1-0.448 1-1 0-0.553-0.447-1-1-1zM19.5 25.469c0 1.381 0.896 2.5 2 2.5s2-1.119 2-2.5-0.896-2.5-2-2.5-2 1.119-2 2.5z"></path>
</symbol>
</defs>
</svg>
